<svg xmlns="http://www.w3.org/2000/svg" height="692pt" version="1.1" viewBox="-36 0 692 692.33896" width="692pt">
<g id="surface1">
<path d="M 386.96875 606.601562 C 386.269531 604.101562 385.570312 601.699219 384.96875 599.101562 C 384.667969 597.800781 384.371094 596.398438 384.167969 595 C 383.667969 592.601562 383.269531 590.199219 382.96875 587.699219 C 382.769531 586.300781 382.570312 584.898438 382.46875 583.5 C 382.167969 580.898438 382.070312 578.199219 382.070312 575.5 C 382.070312 574.601562 381.96875 573.601562 381.96875 572.699219 C 381.96875 572.398438 381.96875 572.101562 381.96875 571.699219 C 381.96875 568.699219 382.167969 565.699219 382.46875 562.699219 C 382.570312 561.898438 382.570312 561 382.667969 560.101562 C 383.46875 552.601562 384.871094 545.300781 386.96875 538.101562 C 398.371094 499.699219 428.371094 469.601562 466.769531 458.300781 C 473.96875 456.199219 481.371094 454.699219 488.871094 454 C 489.769531 453.898438 490.667969 453.898438 491.570312 453.800781 C 494.570312 453.5 497.570312 453.398438 500.371094 453.300781 C 500.667969 453.300781 500.96875 453.300781 501.371094 453.300781 C 502.371094 453.300781 503.269531 453.398438 504.167969 453.398438 C 506.871094 453.5 509.46875 453.601562 512.167969 453.800781 C 513.570312 453.898438 514.96875 454.101562 516.371094 454.300781 C 518.871094 454.601562 521.269531 455 523.667969 455.5 C 525.070312 455.800781 526.46875 456 527.769531 456.300781 C 530.269531 456.898438 532.769531 457.5 535.167969 458.300781 C 536.371094 458.601562 537.570312 458.898438 538.667969 459.300781 C 542.269531 460.5 545.667969 461.800781 549.070312 463.300781 L 549.070312 23.898438 C 549.070312 10.699219 538.371094 0 525.167969 0 L 155.269531 0 L 155.269531 119.300781 C 155.269531 132.5 144.570312 143.199219 131.371094 143.199219 L 0.167969 143.199219 L 0.167969 596.5 C 0.167969 609.699219 10.871094 620.398438 24.070312 620.398438 L 391.96875 620.398438 C 390.46875 617 389.167969 613.601562 387.96875 610 C 387.570312 608.898438 387.269531 607.699219 386.96875 606.601562 Z M 453.46875 238.601562 Z M 453.46875 310.199219 Z M 453.46875 381.800781 Z M 107.570312 453.300781 L 82.269531 428 L 107.570312 453.300781 L 158.167969 402.699219 Z M 107.570312 381.800781 L 82.269531 356.5 L 107.570312 381.800781 L 158.167969 331.199219 Z M 107.570312 310.199219 L 82.269531 284.898438 L 107.570312 310.199219 L 158.167969 259.601562 Z M 107.570312 238.601562 L 82.269531 213.300781 L 107.570312 238.601562 L 158.167969 188 Z M 393.871094 453.300781 Z M 393.871094 453.300781 " style=" stroke:none;fill-rule:nonzero;fill:rgb(100%,91.372549%,80%);fill-opacity:1;" />
<path d="M 155.269531 620.398438 L 525.070312 620.398438 C 538.269531 620.398438 548.96875 609.699219 548.96875 596.5 L 548.96875 251.601562 C 483.769531 430.101562 337.667969 567 155.269531 620.398438 Z M 155.269531 620.398438 " style=" stroke:none;fill-rule:nonzero;fill:rgb(100%,88.627451%,74.117647%);fill-opacity:1;" />
<path d="M 381.96875 571.699219 C 381.96875 568.699219 382.167969 565.699219 382.46875 562.699219 C 382.167969 565.699219 381.96875 568.699219 381.96875 571.699219 Z M 381.96875 571.699219 " style=" stroke:none;fill-rule:nonzero;fill:rgb(100%,91.372549%,80%);fill-opacity:1;" />
<path d="M 382.96875 587.699219 C 383.269531 590.199219 383.667969 592.601562 384.167969 595 C 383.667969 592.601562 383.269531 590.101562 382.96875 587.699219 Z M 382.96875 587.699219 " style=" stroke:none;fill-rule:nonzero;fill:rgb(100%,91.372549%,80%);fill-opacity:1;" />
<path d="M 384.96875 599.101562 C 385.570312 601.601562 386.167969 604.101562 386.96875 606.601562 C 386.269531 604.101562 385.46875 601.601562 384.96875 599.101562 Z M 384.96875 599.101562 " style=" stroke:none;fill-rule:nonzero;fill:rgb(100%,91.372549%,80%);fill-opacity:1;" />
<path d="M 386.871094 538.199219 C 384.769531 545.398438 383.371094 552.800781 382.570312 560.199219 C 388.46875 504.199219 432.769531 459.898438 488.769531 454 C 481.269531 454.800781 473.871094 456.199219 466.667969 458.300781 C 428.269531 469.699219 398.269531 499.699219 386.871094 538.199219 Z M 386.871094 538.199219 " style=" stroke:none;fill-rule:nonzero;fill:rgb(100%,91.372549%,80%);fill-opacity:1;" />
<path d="M 391.96875 620.398438 C 390.46875 617 389.167969 613.601562 387.96875 610 C 389.167969 613.5 390.46875 617 391.96875 620.398438 Z M 391.96875 620.398438 " style=" stroke:none;fill-rule:nonzero;fill:rgb(100%,91.372549%,80%);fill-opacity:1;" />
<path d="M 491.46875 453.800781 C 494.371094 453.5 497.371094 453.398438 500.269531 453.300781 C 497.371094 453.398438 494.371094 453.601562 491.46875 453.800781 Z M 491.46875 453.800781 " style=" stroke:none;fill-rule:nonzero;fill:rgb(100%,91.372549%,80%);fill-opacity:1;" />
<path d="M 548.96875 463.398438 C 545.570312 461.898438 542.167969 460.601562 538.570312 459.398438 C 542.070312 460.601562 545.570312 461.898438 548.96875 463.398438 Z M 548.96875 463.398438 " style=" stroke:none;fill-rule:nonzero;fill:rgb(100%,91.372549%,80%);fill-opacity:1;" />
<path d="M 535.167969 458.398438 C 532.769531 457.699219 530.269531 457 527.769531 456.398438 C 530.167969 456.898438 532.667969 457.699219 535.167969 458.398438 Z M 535.167969 458.398438 " style=" stroke:none;fill-rule:nonzero;fill:rgb(100%,91.372549%,80%);fill-opacity:1;" />
<path d="M 382.070312 575.5 C 382.167969 578.199219 382.269531 580.800781 382.46875 583.5 C 382.269531 580.800781 382.167969 578.101562 382.070312 575.5 Z M 382.070312 575.5 " style=" stroke:none;fill-rule:nonzero;fill:rgb(100%,91.372549%,80%);fill-opacity:1;" />
<path d="M 511.96875 453.898438 C 509.371094 453.699219 506.667969 453.601562 503.96875 453.5 C 506.769531 453.601562 509.371094 453.699219 511.96875 453.898438 Z M 511.96875 453.898438 " style=" stroke:none;fill-rule:nonzero;fill:rgb(100%,91.372549%,80%);fill-opacity:1;" />
<path d="M 523.570312 455.601562 C 521.167969 455.101562 518.769531 454.800781 516.269531 454.398438 C 518.667969 454.699219 521.167969 455.101562 523.570312 455.601562 Z M 523.570312 455.601562 " style=" stroke:none;fill-rule:nonzero;fill:rgb(100%,91.372549%,80%);fill-opacity:1;" />
<path d="M 155.269531 119.300781 L 155.269531 0 L 0.167969 143.199219 L 131.371094 143.199219 C 144.570312 143.199219 155.269531 132.5 155.269531 119.300781 Z M 155.269531 119.300781 " style=" stroke:none;fill-rule:nonzero;fill:rgb(100%,66.27451%,57.647059%);fill-opacity:1;" />
<path d="M 548.96875 463.398438 C 545.570312 461.898438 542.167969 460.601562 538.570312 459.398438 C 537.46875 459 536.269531 458.699219 535.070312 458.398438 C 532.667969 457.699219 530.167969 457 527.667969 456.398438 C 526.269531 456.101562 524.96875 455.800781 523.570312 455.601562 C 521.167969 455.101562 518.769531 454.800781 516.269531 454.398438 C 514.871094 454.199219 513.46875 454 512.070312 453.898438 C 509.46875 453.699219 506.769531 453.601562 504.070312 453.5 C 502.769531 453.5 501.570312 453.398438 500.269531 453.398438 C 497.269531 453.398438 494.371094 453.601562 491.46875 453.898438 C 490.570312 454 489.667969 454 488.769531 454.101562 C 432.769531 460 388.46875 504.300781 382.570312 560.300781 C 382.46875 561.199219 382.46875 562 382.371094 562.898438 C 382.070312 565.898438 381.96875 568.898438 381.871094 571.898438 C 381.871094 573.199219 381.96875 574.398438 381.96875 575.699219 C 382.070312 578.398438 382.167969 581 382.371094 583.699219 C 382.46875 585.101562 382.667969 586.5 382.871094 587.898438 C 383.167969 590.398438 383.570312 592.800781 384.070312 595.199219 C 384.371094 596.601562 384.570312 598 384.871094 599.300781 C 385.46875 601.800781 386.070312 604.300781 386.871094 606.800781 C 387.167969 608 387.46875 609.101562 387.871094 610.199219 C 389.070312 613.800781 390.371094 617.199219 391.871094 620.601562 C 418.167969 681 488.46875 708.699219 548.871094 682.398438 C 609.269531 656.101562 636.96875 585.800781 610.667969 525.398438 C 598.667969 497.5 576.667969 475.398438 548.96875 463.398438 Z M 501.269531 644.199219 L 501.269531 572.601562 Z M 501.269531 644.199219 " style=" stroke:none;fill-rule:nonzero;fill:rgb(49.411765%,74.117647%,31.372549%);fill-opacity:1;" />
<path d="M 386.96875 606.601562 C 387.269531 607.800781 387.570312 608.898438 387.96875 610 C 387.570312 608.898438 387.269531 607.699219 386.96875 606.601562 Z M 386.96875 606.601562 " style=" stroke:none;fill-rule:nonzero;fill:rgb(100%,91.372549%,80%);fill-opacity:1;" />
<path d="M 500.269531 453.300781 C 501.570312 453.300781 502.769531 453.398438 504.070312 453.398438 C 503.070312 453.398438 502.167969 453.300781 501.269531 453.300781 C 500.871094 453.300781 500.570312 453.300781 500.269531 453.300781 Z M 500.269531 453.300781 " style=" stroke:none;fill-rule:nonzero;fill:rgb(100%,91.372549%,80%);fill-opacity:1;" />
<path d="M 382.070312 575.5 C 382.070312 574.300781 381.96875 573 381.96875 571.699219 C 381.96875 572 381.96875 572.300781 381.96875 572.699219 C 381.96875 573.601562 382.070312 574.5 382.070312 575.5 Z M 382.070312 575.5 " style=" stroke:none;fill-rule:nonzero;fill:rgb(100%,91.372549%,80%);fill-opacity:1;" />
<path d="M 384.167969 595 C 384.46875 596.398438 384.667969 597.800781 384.96875 599.101562 C 384.667969 597.699219 384.371094 596.398438 384.167969 595 Z M 384.167969 595 " style=" stroke:none;fill-rule:nonzero;fill:rgb(100%,91.372549%,80%);fill-opacity:1;" />
<path d="M 516.269531 454.398438 C 514.871094 454.199219 513.46875 454 512.070312 453.898438 C 513.46875 454 514.871094 454.199219 516.269531 454.398438 Z M 516.269531 454.398438 " style=" stroke:none;fill-rule:nonzero;fill:rgb(100%,91.372549%,80%);fill-opacity:1;" />
<path d="M 382.46875 583.398438 C 382.570312 584.800781 382.769531 586.199219 382.96875 587.601562 C 382.769531 586.300781 382.570312 584.898438 382.46875 583.398438 Z M 382.46875 583.398438 " style=" stroke:none;fill-rule:nonzero;fill:rgb(100%,91.372549%,80%);fill-opacity:1;" />
<path d="M 538.570312 459.398438 C 537.46875 459 536.269531 458.699219 535.070312 458.398438 C 536.269531 458.699219 537.46875 459 538.570312 459.398438 Z M 538.570312 459.398438 " style=" stroke:none;fill-rule:nonzero;fill:rgb(100%,91.372549%,80%);fill-opacity:1;" />
<path d="M 382.570312 560.199219 C 382.46875 561 382.46875 561.898438 382.371094 562.800781 C 382.46875 561.898438 382.46875 561 382.570312 560.199219 Z M 382.570312 560.199219 " style=" stroke:none;fill-rule:nonzero;fill:rgb(100%,91.372549%,80%);fill-opacity:1;" />
<path d="M 527.667969 456.398438 C 526.269531 456.101562 524.96875 455.800781 523.570312 455.601562 C 524.96875 455.800781 526.269531 456.101562 527.667969 456.398438 Z M 527.667969 456.398438 " style=" stroke:none;fill-rule:nonzero;fill:rgb(100%,91.372549%,80%);fill-opacity:1;" />
<path d="M 491.46875 453.800781 C 490.570312 453.898438 489.667969 453.898438 488.769531 454 C 489.667969 453.898438 490.46875 453.898438 491.46875 453.800781 Z M 491.46875 453.800781 " style=" stroke:none;fill-rule:nonzero;fill:rgb(100%,91.372549%,80%);fill-opacity:1;" />
<path d="M 501.269531 656.199219 C 494.667969 656.199219 489.371094 650.898438 489.371094 644.300781 L 489.371094 501.101562 C 489.371094 494.5 494.667969 489.199219 501.269531 489.199219 C 507.871094 489.199219 513.167969 494.5 513.167969 501.101562 L 513.167969 644.300781 C 513.167969 650.800781 507.769531 656.199219 501.269531 656.199219 Z M 501.269531 656.199219 " style=" stroke:none;fill-rule:nonzero;fill:rgb(94.509804%,94.901961%,94.901961%);fill-opacity:1;" />
<path d="M 572.769531 584.601562 L 429.667969 584.601562 C 423.070312 584.601562 417.769531 579.300781 417.769531 572.699219 C 417.769531 566.101562 423.070312 560.800781 429.667969 560.800781 L 572.871094 560.800781 C 579.46875 560.800781 584.769531 566.101562 584.769531 572.699219 C 584.769531 579.300781 579.371094 584.601562 572.769531 584.601562 Z M 572.769531 584.601562 " style=" stroke:none;fill-rule:nonzero;fill:rgb(94.509804%,94.901961%,94.901961%);fill-opacity:1;" />
<path d="M 453.46875 322.101562 L 214.871094 322.101562 C 208.269531 322.101562 202.96875 316.800781 202.96875 310.199219 C 202.96875 303.601562 208.269531 298.300781 214.871094 298.300781 L 453.46875 298.300781 C 460.070312 298.300781 465.371094 303.601562 465.371094 310.199219 C 465.371094 316.800781 460.070312 322.101562 453.46875 322.101562 Z M 453.46875 322.101562 " style=" stroke:none;fill-rule:nonzero;fill:rgb(100%,47.45098%,33.72549%);fill-opacity:1;" />
<path d="M 453.46875 393.699219 L 214.871094 393.699219 C 208.269531 393.699219 202.96875 388.398438 202.96875 381.800781 C 202.96875 375.199219 208.269531 369.898438 214.871094 369.898438 L 453.46875 369.898438 C 460.070312 369.898438 465.371094 375.199219 465.371094 381.800781 C 465.371094 388.398438 460.070312 393.699219 453.46875 393.699219 Z M 453.46875 393.699219 " style=" stroke:none;fill-rule:nonzero;fill:rgb(100%,47.45098%,33.72549%);fill-opacity:1;" />
<path d="M 393.871094 465.300781 L 214.871094 465.300781 C 208.269531 465.300781 202.96875 460 202.96875 453.398438 C 202.96875 446.800781 208.269531 441.5 214.871094 441.5 L 393.871094 441.5 C 400.46875 441.5 405.769531 446.800781 405.769531 453.398438 C 405.769531 460 400.46875 465.300781 393.871094 465.300781 Z M 393.871094 465.300781 " style=" stroke:none;fill-rule:nonzero;fill:rgb(100%,47.45098%,33.72549%);fill-opacity:1;" />
<path d="M 453.46875 250.5 L 214.871094 250.5 C 208.269531 250.5 202.96875 245.199219 202.96875 238.601562 C 202.96875 232 208.269531 226.699219 214.871094 226.699219 L 453.46875 226.699219 C 460.070312 226.699219 465.371094 232 465.371094 238.601562 C 465.371094 245.199219 460.070312 250.5 453.46875 250.5 Z M 453.46875 250.5 " style=" stroke:none;fill-rule:nonzero;fill:rgb(100%,47.45098%,33.72549%);fill-opacity:1;" />
<path d="M 107.570312 250.5 C 104.371094 250.5 101.371094 249.199219 99.167969 247 L 73.871094 221.699219 C 69.167969 217.101562 68.96875 209.601562 73.570312 204.800781 C 78.167969 200.101562 85.667969 199.898438 90.46875 204.5 C 90.570312 204.601562 90.667969 204.699219 90.769531 204.800781 L 107.667969 221.699219 L 149.871094 179.5 C 154.570312 174.898438 162.167969 175.101562 166.769531 179.800781 C 171.269531 184.398438 171.269531 191.800781 166.769531 196.398438 L 115.96875 247 C 113.769531 249.300781 110.667969 250.5 107.570312 250.5 Z M 107.570312 250.5 " style=" stroke:none;fill-rule:nonzero;fill:rgb(100%,47.45098%,33.72549%);fill-opacity:1;" />
<path d="M 107.570312 322.101562 C 104.371094 322.101562 101.371094 320.800781 99.167969 318.601562 L 73.871094 293.300781 C 69.167969 288.699219 68.96875 281.199219 73.570312 276.398438 C 78.167969 271.601562 85.667969 271.5 90.46875 276.101562 C 90.570312 276.199219 90.667969 276.300781 90.769531 276.398438 L 107.667969 293.300781 L 149.871094 251.101562 C 154.570312 246.5 162.167969 246.699219 166.769531 251.398438 C 171.269531 256 171.269531 263.398438 166.769531 268 L 116.167969 318.601562 C 113.769531 320.898438 110.667969 322.101562 107.570312 322.101562 Z M 107.570312 322.101562 " style=" stroke:none;fill-rule:nonzero;fill:rgb(100%,47.45098%,33.72549%);fill-opacity:1;" />
<path d="M 107.570312 393.699219 C 104.371094 393.699219 101.371094 392.398438 99.167969 390.199219 L 73.871094 364.898438 C 69.269531 360.199219 69.46875 352.601562 74.167969 348 C 78.769531 343.5 86.167969 343.5 90.769531 348 L 107.667969 364.898438 L 149.871094 322.699219 C 154.570312 318.101562 162.167969 318.300781 166.769531 323 C 171.269531 327.601562 171.269531 335 166.769531 339.601562 L 116.167969 390.199219 C 113.769531 392.398438 110.667969 393.699219 107.570312 393.699219 Z M 107.570312 393.699219 " style=" stroke:none;fill-rule:nonzero;fill:rgb(100%,47.45098%,33.72549%);fill-opacity:1;" />
<path d="M 107.570312 465.300781 C 104.371094 465.300781 101.371094 464 99.167969 461.800781 L 73.871094 436.5 C 69.269531 431.800781 69.46875 424.199219 74.167969 419.601562 C 78.769531 415.101562 86.167969 415.101562 90.769531 419.601562 L 107.667969 436.5 L 149.871094 394.300781 C 154.570312 389.699219 162.167969 389.898438 166.769531 394.601562 C 171.269531 399.199219 171.269531 406.601562 166.769531 411.199219 L 116.167969 461.800781 C 113.769531 464 110.667969 465.300781 107.570312 465.300781 Z M 107.570312 465.300781 " style=" stroke:none;fill-rule:nonzero;fill:rgb(100%,47.45098%,33.72549%);fill-opacity:1;" />
</g>
</svg>